<svg version="1.1" viewBox="0.0 0.0 960.0 720.0" fill="none" stroke="none" stroke-linecap="square" stroke-miterlimit="10" xmlns:xlink="http://www.w3.org/1999/xlink" xmlns="http://www.w3.org/2000/svg"><clipPath id="g16a6fedfbcc_0_2.0"><path d="m0 0l960.0 0l0 720.0l-960.0 0l0 -720.0z" clip-rule="nonzero"/></clipPath><g clip-path="url(#g16a6fedfbcc_0_2.0)"><path fill="#ffffff" d="m0 0l960.0 0l0 720.0l-960.0 0z" fill-rule="evenodd"/><path fill="#ffffff" d="m193.81857 679.39215l1.4017181 3.7073364l3.087082 0.56292725l-2.2064667 2.911377l0.55078125 4.0811157l-2.7671509 -1.8910522l-2.7308807 1.9658203l0 0l0.49142456 -4.098755l-2.2526398 -2.862976l3.073883 -0.6244507l1.3522491 -3.7513428zm-0.013198853 -1.3544922l-1.6325836 4.5560913l-3.7500153 0.7784424l2.7407684 3.4874268l-0.6035614 4.982727l3.337738 -2.4056396l3.357544 2.3132324l0 0l-0.6728363 -4.965088l2.6847076 -3.5665894l-3.7467194 -0.66845703l-1.7150421 -4.512146z" fill-rule="evenodd"/><path stroke="#ffffff" stroke-width="1.0" stroke-linejoin="round" stroke-linecap="butt" d="m193.81857 679.39215l1.4017181 3.7073364l3.087082 0.56292725l-2.2064667 2.911377l0.55078125 4.0811157l-2.7671509 -1.8910522l-2.7308807 1.9658203l0 0l0.49142456 -4.098755l-2.2526398 -2.862976l3.073883 -0.6244507l1.3522491 -3.7513428zm-0.013198853 -1.3544922l-1.6325836 4.5560913l-3.7500153 0.7784424l2.7407684 3.4874268l-0.6035614 4.982727l3.337738 -2.4056396l3.357544 2.3132324l0 0l-0.6728363 -4.965088l2.6847076 -3.5665894l-3.7467194 -0.66845703l-1.7150421 -4.512146z" fill-rule="evenodd"/><path fill="#ffffff" d="m134.73866 41.600437l2.288086 6.051159l5.0391693 0.91880035l-3.601715 4.751915l0.89907837 6.6613007l-4.5169373 -3.0865936l-4.457733 3.208622l0 0l0.8021698 -6.690014l-3.6770782 -4.6729584l5.017639 -1.0192909l2.2073212 -6.12294zm-0.021530151 -2.2108612l-2.6649475 7.436535l-6.1212997 1.2705269l4.4738846 5.692253l-0.9852295 8.1328125l5.4483337 -3.9264336l5.4806366 3.775692l0 0l-1.0982819 -8.104099l4.3823547 -5.821457l-6.115921 -1.0910759l-2.79953 -7.3647537z" fill-rule="evenodd"/><path stroke="#ffffff" stroke-width="1.0" stroke-linejoin="round" stroke-linecap="butt" d="m134.73866 41.600437l2.288086 6.051159l5.0391693 0.91880035l-3.601715 4.751915l0.89907837 6.6613007l-4.5169373 -3.0865936l-4.457733 3.208622l0 0l0.8021698 -6.690014l-3.6770782 -4.6729584l5.017639 -1.0192909l2.2073212 -6.12294zm-0.021530151 -2.2108612l-2.6649475 7.436535l-6.1212997 1.2705269l4.4738846 5.692253l-0.9852295 8.1328125l5.4483337 -3.9264336l5.4806366 3.775692l0 0l-1.0982819 -8.104099l4.3823547 -5.821457l-6.115921 -1.0910759l-2.79953 -7.3647537z" fill-rule="evenodd"/><path fill="#ffffff" d="m43.430534 530.9089l2.288086 6.0511475l5.0391655 0.91882324l-3.6017113 4.751892l0.8990822 6.661316l-4.5169487 -3.086609l-4.4577255 3.2086182l0 0l0.8021774 -6.6900024l-3.6770859 -4.6729126l5.0176315 -1.0193481l2.2073288 -6.122925zm-0.021533966 -2.2108765l-2.6649437 7.4365845l-6.1212997 1.2705078l4.473877 5.6922607l-0.98522186 8.1328125l5.4483337 -3.9264526l5.480633 3.7756958l0 0l-1.0982819 -8.104065l4.3823547 -5.821472l-6.1159134 -1.0910645l-2.7995377 -7.364807z" fill-rule="evenodd"/><path stroke="#ffffff" stroke-width="1.0" stroke-linejoin="round" stroke-linecap="butt" d="m43.430534 530.9089l2.288086 6.0511475l5.0391655 0.91882324l-3.6017113 4.751892l0.8990822 6.661316l-4.5169487 -3.086609l-4.4577255 3.2086182l0 0l0.8021774 -6.6900024l-3.6770859 -4.6729126l5.0176315 -1.0193481l2.2073288 -6.122925zm-0.021533966 -2.2108765l-2.6649437 7.4365845l-6.1212997 1.2705078l4.473877 5.6922607l-0.98522186 8.1328125l5.4483337 -3.9264526l5.480633 3.7756958l0 0l-1.0982819 -8.104065l4.3823547 -5.821472l-6.1159134 -1.0910645l-2.7995377 -7.364807z" fill-rule="evenodd"/><path fill="#ffffff" d="m931.56555 416.49255l2.288086 6.0511475l5.0391846 0.9187927l-3.6017456 4.7519226l0.8991089 6.661316l-4.516968 -3.086609l-4.4577026 3.2086182l0 0l0.802124 -6.6900024l-3.677063 -4.6729736l5.017639 -1.0192871l2.2073364 -6.122925zm-0.02154541 -2.2108765l-2.664917 7.436554l-6.121338 1.2705078l4.473877 5.6922607l-0.9852295 8.1328125l5.4483643 -3.926422l5.480652 3.7756653l0 0l-1.0983276 -8.104095l4.3823853 -5.8214417l-6.115906 -1.091095l-2.7995605 -7.364746z" fill-rule="evenodd"/><path stroke="#ffffff" stroke-width="1.0" stroke-linejoin="round" stroke-linecap="butt" d="m931.56555 416.49255l2.288086 6.0511475l5.0391846 0.9187927l-3.6017456 4.7519226l0.8991089 6.661316l-4.516968 -3.086609l-4.4577026 3.2086182l0 0l0.802124 -6.6900024l-3.677063 -4.6729736l5.017639 -1.0192871l2.2073364 -6.122925zm-0.02154541 -2.2108765l-2.664917 7.436554l-6.121338 1.2705078l4.473877 5.6922607l-0.9852295 8.1328125l5.4483643 -3.926422l5.480652 3.7756653l0 0l-1.0983276 -8.104095l4.3823853 -5.8214417l-6.115906 -1.091095l-2.7995605 -7.364746z" fill-rule="evenodd"/><path fill="#ffffff" d="m786.9881 657.71136l2.288086 6.0511475l5.0391846 0.91882324l-3.6016846 4.751892l0.89904785 6.661316l-4.516968 -3.086609l-4.4577026 3.2086182l0 0l0.80218506 -6.6900024l-3.677124 -4.6729736l5.017639 -1.0192871l2.2073364 -6.122925zm-0.02154541 -2.2108765l-2.664917 7.4365234l-6.121277 1.2705688l4.473877 5.6922607l-0.9852295 8.1328125l5.448303 -3.9264526l5.480652 3.7756958l0 0l-1.0982666 -8.104126l4.382324 -5.821472l-6.115906 -1.0910645l-2.7995605 -7.364746z" fill-rule="evenodd"/><path stroke="#ffffff" stroke-width="1.0" stroke-linejoin="round" stroke-linecap="butt" d="m786.9881 657.71136l2.288086 6.0511475l5.0391846 0.91882324l-3.6016846 4.751892l0.89904785 6.661316l-4.516968 -3.086609l-4.4577026 3.2086182l0 0l0.80218506 -6.6900024l-3.677124 -4.6729736l5.017639 -1.0192871l2.2073364 -6.122925zm-0.02154541 -2.2108765l-2.664917 7.4365234l-6.121277 1.2705688l4.473877 5.6922607l-0.9852295 8.1328125l5.448303 -3.9264526l5.480652 3.7756958l0 0l-1.0982666 -8.104126l4.382324 -5.821472l-6.115906 -1.0910645l-2.7995605 -7.364746z" fill-rule="evenodd"/><path fill="#ffffff" d="m928.1519 99.698875l1.4017334 3.707344l3.0870361 0.562912l-2.206482 2.9113388l0.5508423 4.0811462l-2.7671509 -1.8910446l-2.730896 1.9658127l0 0l0.49139404 -4.0987396l-2.2526245 -2.8629684l3.0739136 -0.6244812l1.3522339 -3.75132zm-0.013183594 -1.3545151l-1.6326294 4.5561066l-3.75 0.77841187l2.7407837 3.4874496l-0.60357666 4.9826965l3.3377686 -2.4055939l3.357483 2.31324l0 0l-0.6727905 -4.965103l2.6846924 -3.5666122l-3.746704 -0.66846466l-1.7150269 -4.5121307z" fill-rule="evenodd"/><path stroke="#ffffff" stroke-width="1.0" stroke-linejoin="round" stroke-linecap="butt" d="m928.1519 99.698875l1.4017334 3.707344l3.0870361 0.562912l-2.206482 2.9113388l0.5508423 4.0811462l-2.7671509 -1.8910446l-2.730896 1.9658127l0 0l0.49139404 -4.0987396l-2.2526245 -2.8629684l3.0739136 -0.6244812l1.3522339 -3.75132zm-0.013183594 -1.3545151l-1.6326294 4.5561066l-3.75 0.77841187l2.7407837 3.4874496l-0.60357666 4.9826965l3.3377686 -2.4055939l3.357483 2.31324l0 0l-0.6727905 -4.965103l2.6846924 -3.5666122l-3.746704 -0.66846466l-1.7150269 -4.5121307z" fill-rule="evenodd"/><path fill="#000000" fill-opacity="0.0" d="m463.66852 58.070824c-0.801178 -4.6477547 -2.120819 -9.255211 -4.021698 -13.67461c-6.063965 -13.916401 -18.050507 -22.970123 -39.99704 -22.970123c-25.386993 0 -37.35782 12.250732 -42.400635 29.928326c-54.041595 -7.3477554 -102.93036 28.57161 -102.58475 75.37155c0 2.108963 0.17279053 4.1641846 0.3927307 6.1791077c-38.221848 -13.3387985 -82.17775 -4.6074677 -109.55986 21.801468c-27.397827 26.40892 -32.377823 64.73276 -12.379303 95.60138c-26.486649 18.026855 -41.096725 45.85965 -39.211555 74.78052c1.9008789 28.853699 20.014229 55.16858 48.66883 70.56259c-38.8031 41.010406 -23.737442 102.1163 31.168167 126.268524c-0.45558167 3.0895386 -0.62838745 6.179077 -0.62838745 9.322388c0 38.659668 30.838257 71.0462 72.610504 80.44916c15.584106 38.135742 63.3732 59.198425 108.77438 47.928284c1.9951477 25.871643 12.8349 45.523865 45.14987 45.523865c45.55829 0 44.882782 -33.71643 45.55829 -33.568665c0.06286621 0 -1.0211182 -613.5978 -1.5395508 -613.5038z" fill-rule="evenodd"/><path stroke="#1c4587" stroke-width="12.0" stroke-miterlimit="3.6479" stroke-linecap="butt" d="m463.66852 58.070824c-0.801178 -4.6477547 -2.120819 -9.255211 -4.021698 -13.67461c-6.063965 -13.916401 -18.050507 -22.970123 -39.99704 -22.970123c-25.386993 0 -37.35782 12.250732 -42.400635 29.928326c-54.041595 -7.3477554 -102.93036 28.57161 -102.58475 75.37155c0 2.108963 0.17279053 4.1641846 0.3927307 6.1791077c-38.221848 -13.3387985 -82.17775 -4.6074677 -109.55986 21.801468c-27.397827 26.40892 -32.377823 64.73276 -12.379303 95.60138c-26.486649 18.026855 -41.096725 45.85965 -39.211555 74.78052c1.9008789 28.853699 20.014229 55.16858 48.66883 70.56259c-38.8031 41.010406 -23.737442 102.1163 31.168167 126.268524c-0.45558167 3.0895386 -0.62838745 6.179077 -0.62838745 9.322388c0 38.659668 30.838257 71.0462 72.610504 80.44916c15.584106 38.135742 63.3732 59.198425 108.77438 47.928284c1.9951477 25.871643 12.8349 45.523865 45.14987 45.523865c45.55829 0 44.882782 -33.71643 45.55829 -33.568665c0.06286621 0 -1.0211182 -613.5978 -1.5395508 -613.5038z" fill-rule="evenodd"/><path fill="#000000" fill-opacity="0.0" d="m464.2969 206.89305c0 0 -145.04822 7.643265 -104.42276 156.35802" fill-rule="evenodd"/><path stroke="#1c4587" stroke-width="12.0" stroke-linejoin="round" stroke-linecap="round" d="m464.2969 206.89305c0 0 -145.04822 7.643265 -104.42276 156.35802" fill-rule="evenodd"/><path fill="#000000" fill-opacity="0.0" d="m369.28427 139.12447c0 0 94.60419 -24.111916 94.60419 52.18651" fill-rule="evenodd"/><path stroke="#1c4587" stroke-width="12.0" stroke-linejoin="round" stroke-linecap="round" d="m369.28427 139.12447c0 0 94.60419 -24.111916 94.60419 52.18651" fill-rule="evenodd"/><path fill="#000000" fill-opacity="0.0" d="m274.6644 126.72597c0 0 0 36.658173 31.058197 64.58501" fill-rule="evenodd"/><path stroke="#1c4587" stroke-width="12.0" stroke-linejoin="round" stroke-linecap="round" d="m274.6644 126.72597c0 0 0 36.658173 31.058197 64.58501" fill-rule="evenodd"/><path fill="#000000" fill-opacity="0.0" d="m153.11797 250.30792c52.831924 -35.771606 104.01433 10.343262 104.01433 10.343262c0 0 10.7612 -40.916367 81.078094 -23.910416" fill-rule="evenodd"/><path stroke="#1c4587" stroke-width="12.0" stroke-linejoin="round" stroke-linecap="round" d="m153.11797 250.30792c52.831924 -35.771606 104.01433 10.343262 104.01433 10.343262c0 0 10.7612 -40.916367 81.078094 -23.910416" fill-rule="evenodd"/><path fill="#000000" fill-opacity="0.0" d="m193.11502 531.24194c0 0 -0.34561157 -77.09097 69.40573 -69.54172c0 0 -36.226715 -42.28653 27.680603 -84.57306" fill-rule="evenodd"/><path stroke="#1c4587" stroke-width="12.0" stroke-linejoin="round" stroke-linecap="round" d="m193.11502 531.24194c0 0 -0.34561157 -77.09097 69.40573 -69.54172c0 0 -36.226715 -42.28653 27.680603 -84.57306" fill-rule="evenodd"/><path fill="#000000" fill-opacity="0.0" d="m289.5101 531.24194c0 0 -43.217545 39.788025 -14.845703 96.04468" fill-rule="evenodd"/><path stroke="#1c4587" stroke-width="12.0" stroke-linejoin="round" stroke-linecap="round" d="m289.5101 531.24194c0 0 -43.217545 39.788025 -14.845703 96.04468" fill-rule="evenodd"/><path fill="#000000" fill-opacity="0.0" d="m463.88846 531.24194c-66.24805 -6.864197 -94.60419 48.02234 -94.60419 48.02234c0 0 -17.59491 -6.5686646 -31.073883 9.604431" fill-rule="evenodd"/><path stroke="#1c4587" stroke-width="12.0" stroke-linejoin="round" stroke-linecap="round" d="m463.88846 531.24194c-66.24805 -6.864197 -94.60419 48.02234 -94.60419 48.02234c0 0 -17.59491 -6.5686646 -31.073883 9.604431" fill-rule="evenodd"/><path fill="#000000" fill-opacity="0.0" d="m352.7176 311.46756c0 0 -67.05356 53.165894 -111.0594 0" fill-rule="evenodd"/><path stroke="#1c4587" stroke-width="12.0" stroke-linejoin="round" stroke-linecap="round" d="m352.7176 311.46756c0 0 -67.05356 53.165894 -111.0594 0" fill-rule="evenodd"/><path fill="#000000" fill-opacity="0.0" d="m352.71048 422.4092c0 0 69.295746 -15.09848 111.17798 31.74176" fill-rule="evenodd"/><path stroke="#1c4587" stroke-width="12.0" stroke-linejoin="round" stroke-linecap="round" d="m352.71048 422.4092c0 0 69.295746 -15.09848 111.17798 31.74176" fill-rule="evenodd"/><path fill="#1c4587" d="m525.2155 220.47026l0 0c83.87689 0 151.8725 63.75624 151.8725 142.40352c0 78.64731 -67.995605 142.40353 -151.8725 142.40353l0 -71.20175l0 0c44.553223 0 80.67078 -31.878113 80.67078 -71.20178c0 -39.32364 -36.117554 -71.20175 -80.67078 -71.20175z" fill-rule="evenodd"/><path stroke="#1c4587" stroke-width="1.0" stroke-linejoin="round" stroke-linecap="butt" d="m525.2155 220.47026l0 0c83.87689 0 151.8725 63.75624 151.8725 142.40352c0 78.64731 -67.995605 142.40353 -151.8725 142.40353l0 -71.20175l0 0c44.553223 0 80.67078 -31.878113 80.67078 -71.20178c0 -39.32364 -36.117554 -71.20175 -80.67078 -71.20175z" fill-rule="evenodd"/><path fill="#1c4587" d="m464.70358 21.414587l93.9863 0l0 351.77304l-93.9863 0z" fill-rule="evenodd"/><path stroke="#1c4587" stroke-width="1.0" stroke-linejoin="round" stroke-linecap="butt" d="m464.70358 21.414587l93.9863 0l0 351.77304l-93.9863 0z" fill-rule="evenodd"/><path fill="#1c4587" d="m464.70358 349.3058l93.9863 0l0 351.773l-93.9863 0z" fill-rule="evenodd"/><path stroke="#1c4587" stroke-width="1.0" stroke-linejoin="round" stroke-linecap="butt" d="m464.70358 349.3058l93.9863 0l0 351.773l-93.9863 0z" fill-rule="evenodd"/><path fill="#1c4587" d="m761.32367 69.01716l95.4267 85.522804l-192.83398 172.8206l-95.4267 -85.5228z" fill-rule="evenodd"/><path stroke="#1c4587" stroke-width="1.0" stroke-linejoin="round" stroke-linecap="butt" d="m761.32367 69.01716l95.4267 85.522804l-192.83398 172.8206l-95.4267 -85.5228z" fill-rule="evenodd"/><path fill="#1c4587" d="m858.3691 566.5027l-98.84766 88.588684l-192.83398 -172.82059l98.84766 -88.588715z" fill-rule="evenodd"/><path stroke="#1c4587" stroke-width="1.0" stroke-linejoin="round" stroke-linecap="butt" d="m858.3691 566.5027l-98.84766 88.588684l-192.83398 -172.82059l98.84766 -88.588715z" fill-rule="evenodd"/></g></svg>